<svg preserveAspectRatio="none" overflow="visible" style="display: block;" width="54" height="54" viewBox="0 0 54 54" fill="none" xmlns="http://www.w3.org/2000/svg">
<g id="fluent:gift-24-filled">
<path id="Vector" d="M25.3125 29.25V49.5H16.3125C15.3522 49.5 14.4013 49.3109 13.5141 48.9434C12.6269 48.5759 11.8208 48.0372 11.1418 47.3582C10.4628 46.6792 9.92412 45.8731 9.55663 44.9859C9.18914 44.0987 9 43.1478 9 42.1875V29.25H25.3125ZM45 29.25V42.1875C45 43.1478 44.8109 44.0987 44.4434 44.9859C44.0759 45.8731 43.5372 46.6792 42.8582 47.3582C42.1792 48.0372 41.3731 48.5759 40.4859 48.9434C39.5987 49.3109 38.6478 49.5 37.6875 49.5H28.6875V29.25H45ZM32.625 4.5C33.9371 4.49973 35.2251 4.85251 36.354 5.52134C37.4828 6.19017 38.4109 7.15041 39.0409 8.30137C39.6709 9.45233 39.9796 10.7516 39.9347 12.0629C39.8898 13.3743 39.4928 14.6494 38.7855 15.7545L44.4375 15.75C45.99 15.75 47.25 16.7985 47.25 18.0945V24.6555C47.25 25.9515 45.99 27 44.4375 27L28.6875 26.9977V15.75H25.3125V26.9977L9.5625 27C8.01 27 6.75 25.9515 6.75 24.6555V18.0945C6.75 16.7985 8.01 15.75 9.5625 15.75L15.2145 15.7545C14.2106 14.1868 13.8424 12.2953 14.1849 10.4655C14.5275 8.63577 15.5549 7.00553 17.0579 5.90714C18.5609 4.80875 20.4262 4.32491 22.2735 4.55428C24.1209 4.78364 25.8113 5.70892 27 7.1415C27.685 6.31394 28.5445 5.64801 29.5169 5.19136C30.4894 4.73471 31.5507 4.49862 32.625 4.5ZM21.375 7.875C20.3591 7.87546 19.3827 8.26856 18.6498 8.97213C17.917 9.67571 17.4844 10.6353 17.4426 11.6504C17.4008 12.6654 17.7529 13.6573 18.4253 14.4188C19.0978 15.1803 20.0386 15.6524 21.051 15.7365L21.375 15.75H25.3125V11.8125L25.299 11.4885C25.2177 10.5037 24.769 9.58542 24.0421 8.91603C23.3152 8.24663 22.3632 7.87504 21.375 7.875ZM32.625 7.875C31.5807 7.875 30.5792 8.28984 29.8408 9.02827C29.1023 9.76669 28.6875 10.7682 28.6875 11.8125V15.75H32.625C33.6693 15.75 34.6708 15.3352 35.4092 14.5967C36.1477 13.8583 36.5625 12.8568 36.5625 11.8125C36.5625 10.7682 36.1477 9.76669 35.4092 9.02827C34.6708 8.28984 33.6693 7.875 32.625 7.875Z" fill="white"/>
</g>
</svg>
